<mxfile host="app.diagrams.net" modified="2023-08-21T22:32:29.609Z" agent="Mozilla/5.0 (Windows NT 10.0; Win64; x64) AppleWebKit/537.36 (KHTML, like Gecko) Chrome/115.0.0.0 Safari/537.36 OPR/101.0.0.0" etag="25mXMMtRy_V3QzLqu2tJ" version="21.6.8">
  <diagram name="Página-1" id="ZgD2EFldvfIeDi5U4QJm">
    <mxGraphModel dx="544" dy="303" grid="1" gridSize="10" guides="1" tooltips="1" connect="1" arrows="1" fold="1" page="1" pageScale="1" pageWidth="827" pageHeight="1169" math="0" shadow="0">
      <root>
        <mxCell id="0" />
        <mxCell id="1" parent="0" />
        <mxCell id="AFptWTEWsAOrWrx-0OL2-1" value="" style="rounded=0;whiteSpace=wrap;html=1;" parent="1" vertex="1">
          <mxGeometry x="210" y="120" width="320" height="270" as="geometry" />
        </mxCell>
        <mxCell id="dod19LlcD0nBYo1cjK2C-36" style="edgeStyle=orthogonalEdgeStyle;rounded=0;orthogonalLoop=1;jettySize=auto;html=1;exitX=0.5;exitY=0.5;exitDx=0;exitDy=0;exitPerimeter=0;entryX=0;entryY=0.5;entryDx=0;entryDy=0;" parent="1" source="AFptWTEWsAOrWrx-0OL2-2" edge="1">
          <mxGeometry relative="1" as="geometry">
            <mxPoint x="270" y="270" as="targetPoint" />
          </mxGeometry>
        </mxCell>
        <mxCell id="dod19LlcD0nBYo1cjK2C-37" style="edgeStyle=orthogonalEdgeStyle;rounded=0;orthogonalLoop=1;jettySize=auto;html=1;exitX=0.5;exitY=0.5;exitDx=0;exitDy=0;exitPerimeter=0;entryX=0;entryY=0.5;entryDx=0;entryDy=0;" parent="1" source="AFptWTEWsAOrWrx-0OL2-2" target="Rk4SEtnYa_h4iwb5kXYb-1" edge="1">
          <mxGeometry relative="1" as="geometry">
            <mxPoint x="270" y="210" as="targetPoint" />
          </mxGeometry>
        </mxCell>
        <mxCell id="Rk4SEtnYa_h4iwb5kXYb-6" style="edgeStyle=orthogonalEdgeStyle;rounded=0;orthogonalLoop=1;jettySize=auto;html=1;exitX=0.5;exitY=0.5;exitDx=0;exitDy=0;exitPerimeter=0;entryX=0;entryY=0.5;entryDx=0;entryDy=0;" parent="1" source="AFptWTEWsAOrWrx-0OL2-2" target="Rk4SEtnYa_h4iwb5kXYb-5" edge="1">
          <mxGeometry relative="1" as="geometry" />
        </mxCell>
        <mxCell id="AFptWTEWsAOrWrx-0OL2-2" value="Usuario" style="shape=umlActor;verticalLabelPosition=bottom;verticalAlign=top;html=1;outlineConnect=0;" parent="1" vertex="1">
          <mxGeometry x="150" y="240" width="30" height="60" as="geometry" />
        </mxCell>
        <mxCell id="AFptWTEWsAOrWrx-0OL2-17" value="Login de usuário" style="text;html=1;strokeColor=none;fillColor=none;align=center;verticalAlign=middle;whiteSpace=wrap;rounded=0;" parent="1" vertex="1">
          <mxGeometry x="300" y="120" width="160" height="30" as="geometry" />
        </mxCell>
        <mxCell id="dod19LlcD0nBYo1cjK2C-43" style="edgeStyle=orthogonalEdgeStyle;rounded=0;orthogonalLoop=1;jettySize=auto;html=1;exitX=0.5;exitY=0.5;exitDx=0;exitDy=0;exitPerimeter=0;entryX=1;entryY=0.5;entryDx=0;entryDy=0;" parent="1" source="dod19LlcD0nBYo1cjK2C-41" edge="1" target="Rk4SEtnYa_h4iwb5kXYb-9">
          <mxGeometry relative="1" as="geometry">
            <mxPoint x="530" y="270" as="targetPoint" />
          </mxGeometry>
        </mxCell>
        <mxCell id="dod19LlcD0nBYo1cjK2C-41" value="Sistema" style="shape=umlActor;verticalLabelPosition=bottom;verticalAlign=top;html=1;outlineConnect=0;" parent="1" vertex="1">
          <mxGeometry x="550" y="240" width="30" height="60" as="geometry" />
        </mxCell>
        <mxCell id="Rk4SEtnYa_h4iwb5kXYb-1" value="&lt;font style=&quot;font-size: 10px;&quot;&gt;Colocar seus&lt;br style=&quot;&quot;&gt;dados&lt;/font&gt;" style="ellipse;whiteSpace=wrap;html=1;" parent="1" vertex="1">
          <mxGeometry x="270" y="177.5" width="90" height="52.5" as="geometry" />
        </mxCell>
        <mxCell id="Rk4SEtnYa_h4iwb5kXYb-2" value="&lt;font style=&quot;font-size: 10px;&quot;&gt;Realizar login&lt;/font&gt;" style="ellipse;whiteSpace=wrap;html=1;" parent="1" vertex="1">
          <mxGeometry x="270" y="243.75" width="90" height="52.5" as="geometry" />
        </mxCell>
        <mxCell id="Rk4SEtnYa_h4iwb5kXYb-5" value="&lt;font style=&quot;font-size: 10px;&quot;&gt;Acessar&amp;nbsp; a tela de&lt;br style=&quot;&quot;&gt;esqueceu a senha&lt;/font&gt;" style="ellipse;whiteSpace=wrap;html=1;" parent="1" vertex="1">
          <mxGeometry x="270" y="310" width="90" height="56.25" as="geometry" />
        </mxCell>
        <mxCell id="Rk4SEtnYa_h4iwb5kXYb-9" value="&lt;font style=&quot;font-size: 10px;&quot;&gt;Verificar dados&lt;/font&gt;" style="ellipse;whiteSpace=wrap;html=1;" parent="1" vertex="1">
          <mxGeometry x="400" y="243.75" width="90" height="52.5" as="geometry" />
        </mxCell>
      </root>
    </mxGraphModel>
  </diagram>
</mxfile>
